<?xml version="1.0" standalone="no"?>
<!DOCTYPE svg PUBLIC "-//W3C//DTD SVG 20010904//EN"
 "http://www.w3.org/TR/2001/REC-SVG-20010904/DTD/svg10.dtd">
<svg version="1.0" xmlns="http://www.w3.org/2000/svg"
 width="500.000000pt" height="500.000000pt" viewBox="0 0 500.000000 500.000000"
 preserveAspectRatio="xMidYMid meet">

<g transform="translate(0.000000,500.000000) scale(0.100000,-0.100000)"
fill="#000000" stroke="none">
<path d="M1287 4678 c-38 -155 -1011 -4034 -1068 -4256 -27 -106 -49 -200 -49
-208 0 -12 22 -4 87 32 49 26 117 63 153 82 36 19 108 58 160 87 91 50 140 77
268 146 31 17 80 44 107 59 28 15 82 44 120 65 39 20 76 43 84 50 7 7 106 384
220 837 l206 823 137 -1 c209 -2 220 -14 229 -239 6 -162 18 -206 67 -258 51
-54 97 -70 215 -75 l107 -5 0 87 0 86 -55 0 c-112 0 -135 31 -135 184 0 58 -5
127 -10 154 -13 60 -60 118 -112 139 l-39 16 33 19 c18 11 46 32 61 47 53 48
61 75 65 221 3 89 9 144 18 162 19 38 63 58 124 58 l50 0 0 80 0 80 -88 0
c-118 0 -186 -21 -234 -71 -50 -52 -59 -88 -66 -266 -8 -163 -17 -191 -73
-220 -34 -18 -252 -18 -246 0 2 6 80 317 173 689 l169 678 986 0 987 0 253
262 c140 145 315 325 389 401 74 76 137 143 138 148 2 5 -648 9 -1701 9
l-1705 0 -25 -102z"/>
<path d="M3450 3071 l0 -81 44 0 c58 0 97 -15 121 -48 16 -22 20 -49 25 -172
8 -180 24 -217 118 -265 l34 -16 -53 -32 c-80 -48 -93 -81 -100 -252 -8 -195
-12 -204 -124 -214 l-60 -6 -3 -84 -3 -84 109 5 c115 6 153 18 205 67 53 49
60 74 67 246 9 208 27 245 129 261 l41 7 0 88 0 89 -35 0 c-20 0 -50 7 -66 16
-49 25 -61 69 -69 244 -6 146 -8 158 -34 203 -18 30 -45 57 -74 74 -40 24 -58
27 -159 31 l-113 5 0 -82z"/>
<path d="M2787 2842 c-14 -6 9 -31 119 -132 l138 -125 -347 -3 -347 -2 0 -90
0 -90 345 0 c190 0 345 -4 345 -8 0 -5 -62 -65 -137 -133 l-137 -124 133 -3
133 -3 131 118 c73 65 134 120 137 123 3 3 33 31 66 62 l62 57 -132 118 c-72
65 -163 147 -202 181 l-71 62 -109 -1 c-60 0 -117 -4 -127 -7z"/>
</g>
</svg>
